Two Moon Junction (1988) DVD rip

 
http://www.imdb.com/title/tt0096324/



General
Complete name                    : Two Moon Junction (1988).avi
Format                           : AVI
Format/Info                      : Audio Video Interleave
File size                        : 1.55 GiB
Duration                         : 1h 40mn
Overall bit rate                 : 2 199 Kbps
Movie name                       : two moon junction.Title2.DVDRip
Writing application              : Lavf52.33.0
Original source form/Name        : two moon junction dvd

Video
ID                               : 0
Format                           : MPEG-4 Visual
Format profile                   : AdvancedSimple@L5
Format settings, BVOP            : Yes
Format settings, QPel            : No
Format settings, GMC             : No warppoints
Format settings, Matrix          : Default (H.263)
Muxing mode                      : Packed bitstream
Codec ID                         : XVID
Codec ID/Hint                    : XviD
Duration                         : 1h 40mn
Bit rate                         : 2 001 Kbps
Width                            : 720 pixels
Height                           : 388 pixels
Display aspect ratio             : 1.856
Frame rate                       : 25.000 fps
Resolution                       : 24 bits
Colorimetry                      : 4:2:0
Scan type                        : Progressive
Bits/(Pixel*Frame)               : 0.287
Stream size                      : 1.40 GiB (91%)
Writing library                  : XviD 1.2.1 (UTC 2008-12-04)

Audio
ID                               : 1
Format                           : AC-3
Format/Info                      : Audio Coding 3
Codec ID                         : 2000
Duration                         : 1h 40mn
Bit rate mode                    : Constant
Bit rate                         : 192 Kbps
Channel(s)                       : 2 channels
Channel positions                : L R
Sampling rate                    : 48.0 KHz
Stream size                      : 138 MiB (9%)
Alignment                        : Aligned on interleaves
Interleave, duration             : 32 ms (0.80 video frame)
Interleave, preload duration   